<svg width="1058" height="785" viewBox="0 0 1058 785" fill="none" xmlns="http://www.w3.org/2000/svg">
<g id="undraw_Ride_a_bicycle_2yok 1">
<g clip-path="url(#clip0)">
<path id="Vector" d="M164.802 156.432C159.322 163.082 157.212 172.432 154.852 181.222C135.852 252.062 89.0321 309.042 35.7121 349.742C13.1321 366.982 -14.3579 390.102 -9.41794 421.012C-6.75794 437.612 4.91207 449.832 13.5821 463.352C31.7721 491.662 37.6721 530.142 29.0021 564.032C19.1421 602.592 -8.41794 638.572 0.112063 677.562C5.37206 701.562 23.2321 718.642 40.4021 733.322C67.1887 756.209 94.8287 777.649 123.322 797.642C142.422 811.042 162.742 824.082 185.002 825.782C204.602 827.282 223.802 819.832 242.412 812.482C258.672 806.052 275.342 799.362 288.472 786.482C297.042 778.072 303.872 767.222 313.392 760.342C335.752 744.182 364.472 754.422 390.112 761.342C450.612 777.582 515.362 771.652 572.932 744.602C661.242 703.102 728.552 615.952 814.932 569.192C852.072 549.082 892.472 536.602 926.862 510.702C946.237 495.956 962.887 477.938 976.062 457.462C1002.06 417.352 1016.12 366.212 1012.06 316.152C1008 266.092 985.252 217.852 949.522 189.592C911.272 159.342 862.962 153.692 819.442 135.532C774.502 116.772 734.522 84.5322 690.012 64.4022C653.996 48.1588 614.8 40.185 575.3 41.0658C535.8 41.9466 496.998 51.6596 461.742 69.4922C413.302 93.9922 364.202 151.152 310.252 155.492C271.812 158.492 194.822 120.012 164.802 156.432Z" fill="url(#paint0_linear)"/>
<g id="rightwheel">
<path id="Vector_2" d="M690.627 717.39L684.202 619.504L684.069 619.294L677.582 621.494L647.725 706.292L600.256 673.496L675.889 620.094L675.96 619.884L676.391 619.734L681.267 616.285L601.991 572.981L582.562 593.778L585.641 613.275L676.781 614.855V616.855L583.917 615.235L580.427 593.128L607 564.682L646.74 519.519L647.448 521.389L655.864 512.39L687.209 517.859V516.649L689.262 516.709V518.219L735.817 526.338L692.372 610.976L686.039 615.445V615.945V616.505L786.427 582.43L774.511 673.626L689.324 620.764L686.327 619.124L736.556 698.003L690.627 717.39ZM686.522 623.064L692.526 714.43L733.631 697.053L686.522 623.064ZM603.828 673.496L646.719 703.122L674.78 623.394L603.828 673.496ZM688.318 617.845L690.463 619.014L772.931 670.207L784.015 585.349L688.318 617.845ZM681.031 610.646L683.607 614.695L684.058 614.375L687.137 519.859L656.614 514.52L648.239 523.518L681.031 610.646ZM603.654 571.601L680.466 613.595L679.132 611.466L646.719 525.208L608.539 566.082L603.654 571.601ZM689.221 520.219L686.142 612.895L690.781 609.616L732.769 527.808L689.221 520.219Z" fill="#535461"/>
<path id="Vector_3" d="M682.757 499C672.144 498.988 661.578 500.415 651.347 503.24C646.071 504.695 640.904 506.523 635.887 508.71C609.157 520.297 587.674 541.387 575.594 567.898C563.514 594.41 561.697 624.459 570.492 652.233C579.287 680.008 598.071 703.533 623.209 718.259C648.348 732.984 678.054 737.863 706.582 731.952C735.109 726.04 760.431 709.759 777.648 686.257C794.865 662.755 802.754 633.702 799.789 604.72C796.823 575.738 783.215 548.885 761.595 529.356C739.975 509.828 711.881 499.012 682.747 499H682.757ZM682.357 705.09C662.076 705.082 642.408 698.137 626.62 685.407C610.831 672.678 599.872 654.931 595.562 635.113C591.252 615.295 593.851 594.599 602.928 576.463C612.004 558.326 627.011 543.84 645.457 535.41C650.149 533.262 655.021 531.532 660.017 530.24C672.229 527.07 684.977 526.537 697.411 528.678C709.845 530.818 721.681 535.581 732.13 542.652C742.58 549.722 751.404 558.937 758.015 569.683C764.627 580.429 768.873 592.46 770.473 604.975C772.073 617.49 770.989 630.202 767.293 642.265C763.598 654.329 757.375 665.467 749.04 674.939C740.704 684.41 730.447 691.998 718.951 697.196C707.455 702.395 694.984 705.086 682.367 705.09H682.357Z" fill="#535461"/>
</g>
<g id="leftwheel">
<path id="Vector_4" d="M255.23 716.99L248.96 619.05L248.83 618.84L242.51 621.04L213.43 705.89L167.18 673.1L240.85 619.69L240.92 619.48L241.34 619.33L246.09 615.88L168.85 572.57L149.93 593.37L152.93 612.87L241.75 614.49V616.49L151.27 614.87L147.85 592.73L173.75 564.27L212.5 519.07L213.19 520.94L221.39 511.94L251.85 517.4V516.19L253.85 516.25V517.76L299.21 525.88L256.92 610.49L250.75 614.96V615.46V616.02L348.55 581.94L336.94 673.15L253.94 620.28L251.02 618.64L299.96 697.52L255.23 716.99ZM251.23 622.65L257.08 714.03L297.13 696.65L251.23 622.65ZM170.65 673.08L212.44 702.71L239.78 622.97L170.65 673.08ZM252.97 617.42L255.06 618.59L335.41 669.79L346.21 584.92L252.97 617.42ZM245.87 610.22L248.38 614.27L248.82 613.95L251.82 519.42L222.08 514.1L213.92 523.1L245.87 610.22ZM170.45 571.16L245.29 613.16L243.99 611.03L212.41 524.76L175.22 565.63L170.45 571.16ZM253.85 519.77L250.85 612.49L255.37 609.21L296.28 527.39L253.85 519.77Z" fill="#535461"/>
<path id="Vector_5" d="M364.92 589.95C360.91 572.131 352.79 555.495 341.21 541.37C336.911 536.121 332.171 531.25 327.04 526.81C307.314 509.779 282.491 499.779 256.467 498.381C230.443 496.983 204.692 504.265 183.254 519.085C161.816 533.904 145.906 555.422 138.02 580.262C130.134 605.102 130.719 631.857 139.683 656.328C148.647 680.799 165.482 701.601 187.547 715.47C209.612 729.339 235.657 735.488 261.595 732.954C287.533 730.42 311.895 719.345 330.858 701.468C349.822 683.591 362.312 659.923 366.37 634.18C367.314 628.119 367.789 621.994 367.79 615.86C367.797 607.144 366.834 598.454 364.92 589.95ZM249.73 704.3C231.498 704.281 213.714 698.647 198.797 688.164C183.879 677.682 172.552 662.859 166.356 645.712C160.16 628.565 159.395 609.926 164.165 592.329C168.935 574.732 179.009 559.031 193.018 547.361C207.026 535.692 224.288 528.619 242.457 527.106C260.627 525.593 278.821 529.712 294.567 538.904C310.312 548.096 322.845 561.914 330.46 578.48C338.076 595.045 340.405 613.554 337.13 631.49C333.38 651.933 322.58 670.414 306.611 683.718C290.642 697.021 270.514 704.304 249.73 704.3V704.3Z" fill="#535461"/>
</g>
<g id="man-bike">
<path id="Vector_6" d="M383.06 548.194L340.353 506.05L327.007 519.574L369.714 561.718L383.06 548.194Z" fill="#828192"/>
<path id="Vector_7" d="M354.48 491.99C354.48 491.99 379.27 478.91 388.85 470.49C394.617 465.444 400.818 460.917 407.38 456.96L438.48 438.03L503.48 433.03L506.48 444.03C506.48 444.03 511.48 460.03 461.48 474.03C411.48 488.03 386.48 510.03 386.48 510.03C386.48 510.03 354.48 520.99 354.48 491.99Z" fill="#DB8B8B"/>
<path id="Vector_8" opacity="0.1" d="M389.13 507.86C387.36 509.21 386.48 509.99 386.48 509.99C386.48 509.99 354.48 520.99 354.48 491.99C354.48 491.99 356.03 491.17 358.48 489.8C360.955 493.831 364.423 497.16 368.551 499.469C372.679 501.778 377.33 502.99 382.06 502.99H385.45L389.13 507.86Z" fill="black"/>
<path id="Vector_9" opacity="0.05" d="M503.54 449.55C500.76 455.44 491.17 465.12 459.48 473.99C418.87 485.36 394.75 501.99 387.13 507.86C385.36 509.21 384.48 509.99 384.48 509.99C384.48 509.99 352.48 520.99 352.48 491.99C352.48 491.99 354.03 491.17 356.48 489.8C363.91 485.73 379.64 476.8 386.82 470.45C392.586 465.403 398.787 460.875 405.35 456.92L436.45 437.99L448.03 437.1L501.45 432.99L504.45 443.99C504.45 443.99 505.15 446.14 503.54 449.55Z" fill="black"/>
<path id="Vector_10" d="M351.04 479.381L324.54 496.881L402.14 561.881C402.14 561.881 413.54 554.881 407.54 546.881C407.54 546.881 387.54 529.881 386.54 505.881L380.54 497.881H377.15C371.418 497.882 365.827 496.102 361.149 492.788C356.472 489.474 352.94 484.789 351.04 479.381V479.381Z" fill="#ABB1D1"/>
<path id="Vector_11" opacity="0.1" d="M505.54 449.55C489.54 441.82 450.48 440.99 450.48 440.99L450.06 437.1L503.48 432.99L506.48 443.99C506.48 443.99 507.15 446.14 505.54 449.55Z" fill="black"/>
<path id="Vector_12" d="M450.48 438.99C450.48 438.99 497.48 439.99 509.48 449.99L503.48 328.99H438.48L450.48 438.99Z" fill="#ABB1D1"/>
<path id="Vector_13" opacity="0.05" d="M450.48 438.49C450.48 438.49 497.48 439.49 509.48 449.49L503.48 328.49H438.48L450.48 438.49Z" fill="black"/>
<path id="Vector_14" d="M488.24 364.95C488.24 364.95 605.89 360.95 608.29 376.16C610.69 391.37 490.64 384.96 490.64 384.96C490.64 384.96 481.04 375.35 488.24 364.95Z" fill="#535461"/>
<path id="Vector_15" opacity="0.05" d="M484.3 358.841C484.3 358.841 601.95 354.841 604.35 370.051C606.75 385.261 486.7 378.851 486.7 378.851C486.7 378.851 477.1 369.241 484.3 358.841Z" fill="black"/>
<path id="Vector_16" d="M390.87 443.891H370.06V624.771H390.87V443.891Z" fill="#7E859E"/>
<path id="Vector_17" opacity="0.1" d="M393 425.77V439.7C386.08 440.6 379 441.17 372.19 441.39V425.77H393Z" fill="black"/>
<path id="Vector_18" d="M387.5 404.671C384.58 404.445 381.676 404.054 378.8 403.501C367.52 401.341 339.08 396.811 331.43 404.501C321.83 414.101 325.03 430.911 350.64 433.311C376.25 435.711 420.27 429.311 429.08 419.701C429.08 419.661 413.15 406.641 387.5 404.671Z" fill="#535461"/>
<path id="Vector_19" d="M385.46 469.291L603.96 401.261L611.16 418.071L387.06 494.901L385.46 469.291Z" fill="#828192"/>
<path id="Vector_20" d="M448.29 576.541L605.96 421.271L614.76 434.071L464.29 590.941L448.29 576.541Z" fill="#828192"/>
<path id="Vector_21" opacity="0.1" d="M653.58 529.85C648.584 531.142 643.712 532.872 639.02 535.02L629.46 508.31C634.477 506.123 639.644 504.295 644.92 502.84L653.58 529.85Z" fill="black"/>
<path id="Vector_22" d="M676.39 602.151L665.19 608.551L587.05 390.221L583.55 380.451L601.96 370.041L606.57 384.421L676.39 602.151Z" fill="#828192"/>
<path id="Vector_23" opacity="0.1" d="M610.51 390.53L590.99 396.33L587.49 386.56L605.9 376.15L610.51 390.53Z" fill="black"/>
<path id="Vector_24" d="M487.5 401.261L597.15 363.641C597.15 363.641 616.36 366.041 609.15 382.051L498.71 414.861C498.71 414.861 481.91 416.461 487.5 401.261Z" fill="#535461"/>
<path id="Vector_25" opacity="0.1" d="M367.79 615.86C367.789 621.994 367.314 628.119 366.37 634.18C356.77 633.49 346.85 632.49 337.13 631.49C339.289 619.599 339.021 607.394 336.34 595.61C345.81 593.61 355.48 591.7 364.92 589.97C366.833 598.467 367.795 607.15 367.79 615.86V615.86Z" fill="black"/>
<path id="Vector_26" opacity="0.1" d="M393 585.38V606.65H372.19V588.65C379.39 587.4 386.39 586.29 393 585.38Z" fill="black"/>
<path id="Vector_27" d="M272.23 609.381C272.23 609.381 440.31 565.381 453.91 582.171C467.51 598.961 481.92 621.381 439.54 629.381C397.16 637.381 269.06 615.771 269.06 615.771L272.23 609.381Z" fill="#828192"/>
<path id="Vector_28" opacity="0.1" d="M341.21 541.37L319.85 560.92C316.067 556.064 311.791 551.614 307.09 547.64L327.03 526.81C332.164 531.249 336.908 536.12 341.21 541.37V541.37Z" fill="black"/>
<path id="Vector_29" d="M249 600.551L374.65 469.291L378.66 499.701L255.4 612.551L249 600.551Z" fill="#828192"/>
<path id="Vector_30" opacity="0.1" d="M251.34 628.27C258.415 628.27 264.15 622.535 264.15 615.46C264.15 608.385 258.415 602.65 251.34 602.65C244.265 602.65 238.53 608.385 238.53 615.46C238.53 622.535 244.265 628.27 251.34 628.27Z" fill="black"/>
<path id="Vector_31" d="M249.73 628.27C256.805 628.27 262.54 622.535 262.54 615.46C262.54 608.385 256.805 602.65 249.73 602.65C242.655 602.65 236.92 608.385 236.92 615.46C236.92 622.535 242.655 628.27 249.73 628.27Z" fill="#535461"/>
<path id="Vector_32" opacity="0.1" d="M675.13 627.07C682.205 627.07 687.94 621.335 687.94 614.26C687.94 607.185 682.205 601.45 675.13 601.45C668.055 601.45 662.32 607.185 662.32 614.26C662.32 621.335 668.055 627.07 675.13 627.07Z" fill="black"/>
<path id="Vector_33" d="M675.93 628.67C683.005 628.67 688.74 622.935 688.74 615.86C688.74 608.785 683.005 603.05 675.93 603.05C668.855 603.05 663.12 608.785 663.12 615.86C663.12 622.935 668.855 628.67 675.93 628.67Z" fill="#535461"/>
<path id="Vector_34" opacity="0.1" d="M448.22 628.27C462.364 628.27 473.83 616.804 473.83 602.66C473.83 588.516 462.364 577.05 448.22 577.05C434.076 577.05 422.61 588.516 422.61 602.66C422.61 616.804 434.076 628.27 448.22 628.27Z" fill="black"/>
<path id="Vector_35" d="M449.83 628.27C463.974 628.27 475.44 616.804 475.44 602.66C475.44 588.516 463.974 577.05 449.83 577.05C435.686 577.05 424.22 588.516 424.22 602.66C424.22 616.804 435.686 628.27 449.83 628.27Z" fill="#535461"/>
<path id="Vector_36" d="M442.992 600.736L442.984 600.742C439.977 602.991 439.362 607.253 441.611 610.26L461.937 637.441C464.186 640.448 468.448 641.063 471.455 638.814L471.463 638.808C474.471 636.559 475.085 632.297 472.836 629.29L452.51 602.109C450.261 599.102 446 598.487 442.992 600.736Z" fill="#6C63FF"/>
<path id="Vector_37" d="M561.54 240.881L559.16 270.991C558.886 274.805 558.936 278.635 559.31 282.441C559.62 285.811 559.31 291.711 556.01 300.711C551.773 312.208 549.583 324.358 549.54 336.611V370.881L526.54 366.881C526.54 366.881 527.54 318.881 523.54 310.881C519.54 302.881 526.54 231.881 526.54 231.881L561.54 240.881Z" fill="#DB8B8B"/>
<path id="Vector_38" d="M467.19 470.881L458.54 520.081C457.449 526.65 455.776 533.109 453.54 539.381C448.47 553.241 451.71 572.671 454.17 583.271C455.26 587.951 456.17 590.911 456.17 590.911L430.17 604.911L422.17 598.911V594.911L421.17 505.911C415.17 491.911 417.17 470.911 421.17 462.911C422.307 460.282 423.107 457.52 423.55 454.691C425.55 443.971 426.17 428.911 426.17 428.911C426.17 428.911 442.17 401.911 461.17 419.911C468.17 426.541 470.83 435.211 471.39 443.511C472.37 457.721 467.19 470.881 467.19 470.881Z" fill="#DB8B8B"/>
<path id="Vector_39" opacity="0.1" d="M455.7 449.59C441.83 457.83 417.7 460.16 407.86 460.77C409.86 450.05 410.48 434.99 410.48 434.99C410.48 434.99 426.48 407.99 445.48 425.99C452.48 432.62 455.14 441.29 455.7 449.59Z" fill="black"/>
<path id="Vector_40" d="M503.17 418.881C492.536 424.544 482.487 431.243 473.17 438.881C457.17 451.881 417.17 452.881 417.17 452.881V437.881C418.17 419.881 401.17 399.881 378.17 343.881C363.48 308.121 367.55 287.881 372.41 277.881C375.17 272.231 378.17 269.881 378.17 269.881L503.17 293.881L507.64 307.281L517.17 335.881C517.17 335.881 482.17 337.881 476.17 340.881C470.17 343.881 474.17 370.881 474.17 370.881C468.17 398.881 503.17 418.881 503.17 418.881Z" fill="#ABB1D1"/>
<path id="Vector_41" opacity="0.1" d="M565.48 246.99L564.3 261.91C546.9 266.91 534.48 250.99 534.48 250.99C532.665 251.477 530.882 252.074 529.14 252.78C529.89 244.03 530.48 237.99 530.48 237.99L565.48 246.99Z" fill="black"/>
<path id="Vector_42" d="M594.17 200.891C591.56 221.241 590.69 246.891 590.69 246.891C567.69 264.891 549.69 241.891 549.69 241.891C527.97 247.721 517.76 266.731 512.95 283.321C510.374 292.295 508.942 301.558 508.69 310.891C508.69 310.891 502.61 315.891 491.41 316.891C480.82 317.781 465.64 315.021 446.69 300.891C407.69 271.891 372.69 279.891 372.69 279.891C372.69 279.891 379.69 239.891 395.69 227.891C411.69 215.891 423.69 200.891 443.69 154.891C463.69 108.891 504.69 119.891 504.69 119.891C504.69 119.891 506.69 110.891 543.69 119.891C552.702 122.253 561.044 126.672 568.06 132.801C587.85 149.441 597.45 175.251 594.17 200.891Z" fill="white"/>
<path id="Vector_43" d="M537.91 143.381C537.86 144.711 537.75 146.191 537.57 147.841C535.57 165.841 533.57 163.841 511.57 167.841C497.89 170.331 490.78 158.901 487.36 149.901C486.122 146.641 485.188 143.273 484.57 139.841L532.57 131.841C532.57 131.841 538.32 130.231 537.91 143.381Z" fill="#DB8B8B"/>
<path id="Vector_44" opacity="0.05" d="M495.8 284.311C493.224 293.285 491.792 302.548 491.54 311.881C491.54 311.881 485.46 316.881 474.26 317.881C473.944 317.244 473.703 316.573 473.54 315.881C471.54 306.881 456.54 290.881 456.54 290.881C446.54 281.881 444.54 265.881 444.54 265.881L428.04 217.381L422.54 212.881C422.54 212.881 445.54 194.881 465.54 209.881C485.54 224.881 479.54 256.881 479.54 256.881L483.54 267.881C487.69 271.381 491.91 277.551 495.8 284.311Z" fill="black"/>
<path id="Vector_45" d="M441.17 211.881L463.17 264.881C463.17 264.881 465.17 280.881 475.17 289.881C475.17 289.881 490.17 305.881 492.17 314.881C494.17 323.881 522.17 347.881 522.17 347.881C522.17 347.881 548.17 371.881 550.17 380.881C550.17 380.881 574.17 387.881 571.17 401.881C571.17 401.881 589.17 383.881 571.17 366.881C553.17 349.881 529.17 314.881 529.17 314.881C529.17 314.881 515.17 277.881 502.17 266.881L498.17 255.881C498.17 255.881 504.17 223.881 484.17 208.881C464.17 193.881 441.17 211.881 441.17 211.881Z" fill="#DB8B8B"/>
<path id="Vector_46" opacity="0.1" d="M438.54 590.881L412.54 604.881L404.54 598.881V594.881C413.524 594.243 422.253 591.609 430.09 587.171C432.49 585.811 434.75 584.471 436.56 583.291C437.61 587.921 438.54 590.881 438.54 590.881Z" fill="black"/>
<path id="Vector_47" d="M484.17 167.881L498.17 222.881C498.17 222.881 455.17 229.881 446.17 222.881C437.17 215.881 420.17 213.881 420.17 213.881C420.17 213.881 438.17 161.881 448.17 155.881C458.17 149.881 484.17 167.881 484.17 167.881Z" fill="white"/>
<path id="Vector_48" opacity="0.1" d="M539.91 142.381C537.109 146.247 533.547 149.499 529.443 151.938C525.338 154.376 520.778 155.949 516.043 156.56C511.308 157.171 506.499 156.806 501.91 155.489C497.321 154.172 493.05 151.93 489.36 148.901C488.122 145.641 487.188 142.273 486.57 138.841L534.57 130.841C534.57 130.841 540.32 129.231 539.91 142.381Z" fill="black"/>
<path id="Vector_49" d="M562.17 120.881C562.17 130.163 558.483 139.066 551.919 145.63C545.355 152.193 536.453 155.881 527.17 155.881C517.887 155.881 508.985 152.193 502.421 145.63C495.858 139.066 492.17 130.163 492.17 120.881C492.17 120.301 492.17 119.721 492.17 119.141C492.401 109.858 496.31 101.048 503.036 94.6469C509.763 88.2463 518.757 84.7801 528.04 85.0108C537.323 85.2416 546.133 89.1503 552.534 95.8773C558.935 102.604 562.401 111.598 562.17 120.881V120.881Z" fill="#DB8B8B"/>
<path id="Vector_50" opacity="0.05" d="M400.67 228.381C400.67 228.381 426.67 235.381 434.67 253.381C442.67 271.381 464.31 274.671 464.31 274.671" fill="black"/>
<path id="Vector_51" d="M479.04 624.381H419.04V643.381H479.04V624.381Z" fill="#828192"/>
<path id="Vector_52" d="M445.68 589.121C451.05 586.121 455.76 583.121 456.17 581.881C456.17 581.881 469.72 596.181 481.79 600.621C485.848 602.12 489.734 604.051 493.38 606.381C498.16 609.381 504.98 612.911 511.17 612.911C511.17 612.911 525.17 624.911 498.17 626.911C471.17 628.911 408.17 621.911 408.17 621.911L412.17 596.911C423.857 597.596 435.494 594.891 445.68 589.121Z" fill="#ABB1D1"/>
</g>
<g id="hat">
<path id="Vector_53" opacity="0.1" d="M560.48 120.99C560.483 124.216 560.039 127.426 559.16 130.53C556.455 131.12 553.633 130.861 551.08 129.79C547.34 128.32 544.13 125.79 540.54 123.97C530.43 118.85 518.4 119.86 507.2 121.55C501.64 122.39 495.33 123.17 490.96 119.63C490.81 119.511 490.666 119.385 490.53 119.25C490.761 109.967 494.67 101.157 501.396 94.7561C508.123 88.3555 517.117 84.8893 526.4 85.12C535.683 85.3508 544.493 89.2595 550.894 95.9865C557.295 102.713 560.761 111.707 560.53 120.99H560.48Z" fill="black"/>
<path id="Vector_54" d="M468.624 99.9267C470.754 106.607 480.984 106.817 486.234 111.737C488.964 114.297 490.234 118.077 493.234 120.357C497.404 123.537 503.424 122.837 508.734 122.077C519.424 120.557 530.904 119.647 540.544 124.257C543.964 125.887 547.034 128.167 550.604 129.497C554.174 130.827 558.604 130.987 561.504 128.627C563.824 126.737 564.674 123.627 566.774 121.547C568.404 119.907 570.674 118.987 572.534 117.547C576.614 114.467 578.374 109.447 579.534 104.647C581.934 94.7667 582.624 84.1167 578.534 74.7467C574.444 65.3767 564.604 57.7467 553.864 58.2367C550.574 58.3867 547.364 59.2367 544.084 59.5967C535.534 60.4667 527.084 57.5967 518.504 57.1067C516.015 56.8039 513.49 57.1483 511.174 58.1067C509.427 59.0775 507.92 60.4273 506.764 62.0567C502.836 67.2021 500.146 73.1836 498.904 79.5367C497.904 84.3267 497.854 88.6667 491.984 89.4067C485.314 90.2867 464.114 85.7967 468.624 99.9267Z" fill="#472727"/>
</g>
</g>
</g>
<defs>
<linearGradient id="paint0_linear" x1="-9.99997" y1="684.5" x2="870" y2="149.5" gradientUnits="userSpaceOnUse">
<stop stop-color="#D663FF"/>
<stop offset="0.832808" stop-color="#0ECEE8"/>
</linearGradient>
<clipPath id="clip0">
<rect width="1057.7" height="784.98" fill="white"/>
</clipPath>
</defs>
</svg>
